<svg width="304" height="81" viewBox="0 0 304 81" fill="none" xmlns="http://www.w3.org/2000/svg">
<path fill-rule="evenodd" clip-rule="evenodd" d="M38.1243 69.389C39.2493 70.4777 46.2323 76.8362 58.1057 79.1592C53.0465 75.4026 51.5643 71.0361 52.1687 66.1545C54.9959 65.3064 60.1842 62.2864 60.1842 62.2864C69.2073 56.0173 74.9982 45.9731 74.9982 34.6482C74.9982 22.7841 68.6686 12.3358 58.9721 6.1341C52.9791 2.22434 45.7741 0 37.963 0C18.2658 0 2.18467 14.3549 0.998047 32.4953C5.73603 24.8686 14.1892 19.7906 23.8284 19.7906C34.4725 19.7906 43.6705 25.9826 48.0166 34.9611C38.8729 36.9594 32.0274 45.1038 32.0274 54.847C32.0274 60.541 34.3653 65.6889 38.1336 69.3832C38.1305 69.3851 38.1274 69.3871 38.1243 69.389Z" fill="#4F46E5"/>
<circle cx="32.6631" cy="29.9673" r="2.82711" fill="#4F46E5"/>
<path fill-rule="evenodd" clip-rule="evenodd" d="M1.24023 30.0833C7.92047 18.6676 20.3111 11 34.4926 11C54.6674 11 71.2177 26.5179 72.8589 46.2688C74.2415 42.639 74.9926 38.7267 74.9926 34.6482C74.9926 22.7841 68.6629 12.3358 58.9664 6.1341C52.9735 2.22434 45.7685 0 37.9574 0C19.1418 0 3.62576 13.0987 1.24023 30.0833Z" fill="#6366F1"/>
<path fill-rule="evenodd" clip-rule="evenodd" d="M48.1031 34.9233C38.8487 36.8377 31.8926 45.0346 31.8926 54.8563C31.8926 62.1703 35.7501 68.5833 41.5416 72.1718C37.7756 67.9072 35.4902 62.3042 35.4902 56.1674C35.4902 47.0018 40.5881 39.0268 48.1031 34.9233Z" fill="#4338CA"/>
<path d="M110.48 61.0654C107.474 61.0654 104.917 60.4206 102.81 59.1308C100.703 57.8411 99.0872 55.8925 97.9633 53.285C96.8676 50.6495 96.3197 47.3551 96.3197 43.4019H99.9441C99.9441 45.2243 100.366 46.7804 101.208 48.0701C102.051 49.3598 103.161 50.3551 104.538 51.0561C105.943 51.729 107.446 52.0654 109.047 52.0654C110.705 52.0654 112.335 51.6168 113.936 50.7196C115.566 49.7944 116.914 48.4065 117.982 46.5561C119.05 44.6776 119.583 42.3084 119.583 39.4486C119.583 36.8411 119.134 34.5981 118.235 32.7196C117.336 30.8131 116.099 29.3551 114.526 28.3458C112.981 27.3364 111.211 26.8318 109.216 26.8318C107.53 26.8318 105.985 27.2103 104.58 27.9673C103.175 28.7243 102.051 29.8318 101.208 31.2897C100.366 32.7196 99.9441 34.4579 99.9441 36.5047H96.3197C96.3197 32.215 96.98 28.7103 98.3005 25.9907C99.621 23.243 101.391 21.2103 103.611 19.8925C105.83 18.5748 108.261 17.9159 110.902 17.9159C114.133 17.9159 117.167 18.771 120.005 20.4813C122.871 22.1916 125.189 24.6589 126.959 27.8832C128.729 31.0794 129.614 34.9346 129.614 39.4486C129.614 43.9907 128.715 47.8738 126.917 51.0981C125.118 54.3224 122.758 56.7897 119.836 58.5C116.942 60.2103 113.824 61.0654 110.48 61.0654ZM89.998 79.8224V19.0935H98.1741L99.9441 29.1869V79.8224H89.998Z" fill="#0F172A"/>
<path d="M140.938 11.6075C138.999 11.6075 137.482 11.1028 136.387 10.0935C135.319 9.05607 134.785 7.62617 134.785 5.80374C134.785 4.03738 135.319 2.63551 136.387 1.59813C137.482 0.53271 138.999 0 140.938 0C142.849 0 144.352 0.53271 145.448 1.59813C146.543 2.63551 147.091 4.03738 147.091 5.80374C147.091 7.62617 146.543 9.05607 145.448 10.0935C144.352 11.1028 142.849 11.6075 140.938 11.6075ZM135.965 59.8878V18.9252H145.911V59.8878H135.965Z" fill="#0F172A"/>
<path d="M171.545 61.0654C168.118 61.0654 164.985 60.1682 162.147 58.3738C159.338 56.5514 157.09 54.014 155.404 50.7617C153.746 47.4813 152.918 43.6542 152.918 39.2804C152.918 34.9626 153.718 31.2056 155.32 28.0093C156.949 24.785 159.113 22.3037 161.81 20.5654C164.535 18.7991 167.556 17.9159 170.871 17.9159C173.906 17.9159 176.533 18.6449 178.752 20.1028C180.972 21.5327 182.672 23.6636 183.852 26.4953C185.032 29.3271 185.622 32.8037 185.622 36.9252H182.503C182.503 34.7944 182.068 32.986 181.197 31.5C180.326 29.986 179.174 28.8364 177.741 28.0514C176.336 27.2383 174.805 26.8318 173.147 26.8318C171.152 26.8318 169.382 27.3505 167.837 28.3879C166.32 29.4252 165.125 30.8832 164.254 32.7617C163.384 34.6121 162.948 36.785 162.948 39.2804C162.948 41.8598 163.384 44.1028 164.254 46.0093C165.125 47.9159 166.32 49.4019 167.837 50.4673C169.382 51.5327 171.124 52.0654 173.063 52.0654C174.636 52.0654 176.139 51.6449 177.572 50.8037C179.033 49.9346 180.213 48.729 181.112 47.1869C182.039 45.6449 182.503 43.8505 182.503 41.8037H185.622C185.622 46.0935 184.975 49.6682 183.683 52.528C182.419 55.3598 180.719 57.4907 178.584 58.9206C176.448 60.3505 174.102 61.0654 171.545 61.0654ZM184.357 59.8878L182.503 49.7944V2.18691H192.533V59.8878H184.357Z" fill="#0F172A"/>
<path d="M217.673 81C212.981 81 208.963 80.3551 205.62 79.0654C202.305 77.7757 199.762 76.0794 197.992 73.9766C196.222 71.9019 195.337 69.6449 195.337 67.2056C195.337 64.3178 196.39 62.0748 198.497 60.4766C200.605 58.9065 203.26 58.1215 206.463 58.1215L213.712 60.8131C210.958 60.8131 208.837 61.3318 207.348 62.3692C205.859 63.4065 205.114 64.8505 205.114 66.7009C205.114 68.6355 206.224 70.1776 208.444 71.3271C210.691 72.5047 213.768 73.0935 217.673 73.0935C220.511 73.0935 222.969 72.6729 225.048 71.8318C227.128 70.9907 228.729 69.8972 229.853 68.5514C231.005 67.2056 231.581 65.7757 231.581 64.2617C231.581 63.2523 231.244 62.4252 230.569 61.7804C229.895 61.1355 228.855 60.8131 227.451 60.8131H213.712C210.958 60.8131 208.444 60.3785 206.168 59.5093C203.92 58.6122 202.122 57.4206 200.773 55.9346C199.453 54.4206 198.792 52.7383 198.792 50.8879C198.792 49.1776 199.27 47.7056 200.225 46.472C201.181 45.2103 202.473 44.243 204.103 43.5701C205.76 42.8972 207.615 42.5607 209.666 42.5607L212.194 45.8411C211.38 45.8411 210.593 46.0093 209.834 46.3458C209.104 46.6542 208.5 47.1168 208.022 47.7336C207.544 48.3505 207.306 49.1215 207.306 50.0467C207.306 51.1682 207.783 52.0794 208.739 52.7804C209.694 53.4813 211.351 53.8318 213.712 53.8318H227.451C231.806 53.8318 235.219 54.6308 237.692 56.229C240.192 57.8271 241.443 60.2804 241.443 63.5888C241.443 66.5327 240.473 69.3224 238.535 71.9579C236.596 74.6215 233.843 76.7944 230.274 78.4766C226.734 80.1589 222.534 81 217.673 81ZM218.179 47.271C214.948 47.271 211.984 46.6682 209.286 45.4626C206.617 44.229 204.482 42.5187 202.88 40.3318C201.279 38.1449 200.478 35.5794 200.478 32.6355C200.478 29.6355 201.279 27.028 202.88 24.8131C204.482 22.5981 206.617 20.9019 209.286 19.7243C211.984 18.5187 214.948 17.9159 218.179 17.9159C221.326 17.9159 224.234 18.5187 226.903 19.7243C229.572 20.9019 231.721 22.5981 233.351 24.8131C234.98 27.028 235.795 29.6355 235.795 32.6355C235.795 35.5794 234.98 38.1449 233.351 40.3318C231.721 42.5187 229.572 44.229 226.903 45.4626C224.234 46.6682 221.326 47.271 218.179 47.271ZM218.263 40.3738C220.848 40.3738 222.787 39.6308 224.079 38.1449C225.372 36.6589 226.018 34.8224 226.018 32.6355C226.018 30.2804 225.357 28.3878 224.037 26.9579C222.745 25.528 220.792 24.8131 218.179 24.8131C215.65 24.8131 213.712 25.528 212.363 26.9579C211.014 28.3878 210.34 30.2804 210.34 32.6355C210.34 34.8224 211.014 36.6589 212.363 38.1449C213.74 39.6308 215.706 40.3738 218.263 40.3738ZM232.677 24.4766L228.125 21.8692C228.125 19.4299 228.687 17.2991 229.811 15.4766C230.963 13.6262 232.48 12.1963 234.362 11.1869C236.273 10.1776 238.38 9.6729 240.684 9.6729L240.178 19.1776C237.734 19.1776 235.865 19.6121 234.573 20.4813C233.309 21.3224 232.677 22.6542 232.677 24.4766Z" fill="#0F172A"/>
<path d="M250.464 11.6075C248.525 11.6075 247.008 11.1028 245.913 10.0935C244.845 9.05607 244.311 7.62617 244.311 5.80374C244.311 4.03738 244.845 2.63551 245.913 1.59813C247.008 0.53271 248.525 0 250.464 0C252.375 0 253.878 0.53271 254.974 1.59813C256.069 2.63551 256.617 4.03738 256.617 5.80374C256.617 7.62617 256.069 9.05607 254.974 10.0935C253.878 11.1028 252.375 11.6075 250.464 11.6075ZM245.491 59.8878V18.9252H255.437V59.8878H245.491Z" fill="#0F172A"/>
<path d="M294.052 59.8878V36C294.052 32.972 293.321 30.6869 291.86 29.1449C290.399 27.6028 288.489 26.8318 286.129 26.8318C284.134 26.8318 282.364 27.3785 280.819 28.472C279.301 29.5654 278.107 31.2196 277.236 33.4346C276.365 35.6215 275.93 38.3551 275.93 41.6355H272.643C272.643 36.3364 273.303 31.9346 274.623 28.4299C275.944 24.8972 277.812 22.2617 280.229 20.5234C282.645 18.785 285.483 17.9159 288.742 17.9159C292.113 17.9159 294.923 18.6729 297.171 20.1869C299.446 21.6729 301.146 23.7757 302.27 26.4953C303.422 29.215 303.998 32.3832 303.998 36V59.8878H294.052ZM265.984 59.8878V19.0935H274.666L275.93 27.1682V59.8878H265.984Z" fill="#0F172A"/>
</svg>
