<svg width="315" height="81" viewBox="0 0 315 81" fill="none" xmlns="http://www.w3.org/2000/svg">
<path fill-rule="evenodd" clip-rule="evenodd" d="M37.1262 69.389C38.2513 70.4777 45.2342 76.8362 57.1076 79.1592C52.0485 75.4026 50.5663 71.0361 51.1707 66.1545C53.9978 65.3064 59.1861 62.2864 59.1861 62.2864C68.2093 56.0173 74.0002 45.9731 74.0002 34.6482C74.0002 22.7841 67.6705 12.3358 57.974 6.1341C51.9811 2.22434 44.7761 0 36.965 0C17.2678 0 1.18662 14.3549 0 32.4953C4.73799 24.8686 13.1911 19.7906 22.8303 19.7906C33.4745 19.7906 42.6724 25.9826 47.0186 34.9611C37.8748 36.9594 31.0294 45.1038 31.0294 54.847C31.0294 60.541 33.3673 65.6889 37.1355 69.3832C37.1324 69.3851 37.1293 69.3871 37.1262 69.389Z" fill="#4F46E5"/>
<circle cx="31.665" cy="29.9673" r="2.82711" fill="#4F46E5"/>
<path fill-rule="evenodd" clip-rule="evenodd" d="M0.242188 30.0833C6.92243 18.6676 19.3131 11 33.4946 11C53.6693 11 70.2197 26.5179 71.8609 46.2688C73.2435 42.639 73.9946 38.7267 73.9946 34.6482C73.9946 22.7841 67.6649 12.3358 57.9684 6.1341C51.9754 2.22434 44.7704 0 36.9594 0C18.1437 0 2.62772 13.0987 0.242188 30.0833Z" fill="#6366F1"/>
<path fill-rule="evenodd" clip-rule="evenodd" d="M47.1051 34.9233C37.8507 36.8377 30.8945 45.0346 30.8945 54.8563C30.8945 62.1703 34.752 68.5833 40.5435 72.1718C36.7775 67.9072 34.4922 62.3042 34.4922 56.1674C34.4922 47.0018 39.5901 39.0268 47.1051 34.9233Z" fill="#4338CA"/>
<path d="M121.482 61.0654C118.476 61.0654 115.919 60.4206 113.812 59.1308C111.705 57.8411 110.089 55.8925 108.965 53.285C107.87 50.6495 107.322 47.3551 107.322 43.4019H110.946C110.946 45.2243 111.368 46.7804 112.21 48.0701C113.053 49.3598 114.163 50.3551 115.54 51.0561C116.945 51.729 118.448 52.0654 120.049 52.0654C121.707 52.0654 123.337 51.6168 124.938 50.7196C126.568 49.7944 127.916 48.4065 128.984 46.5561C130.052 44.6776 130.585 42.3084 130.585 39.4486C130.585 36.8411 130.136 34.5981 129.237 32.7196C128.338 30.8131 127.101 29.3551 125.528 28.3458C123.983 27.3364 122.213 26.8318 120.218 26.8318C118.532 26.8318 116.987 27.2103 115.582 27.9673C114.177 28.7243 113.053 29.8318 112.21 31.2897C111.368 32.7196 110.946 34.4579 110.946 36.5047H107.322C107.322 32.215 107.982 28.7103 109.302 25.9907C110.623 23.243 112.393 21.2103 114.613 19.8925C116.832 18.5748 119.263 17.9159 121.904 17.9159C125.135 17.9159 128.169 18.771 131.007 20.4813C133.873 22.1916 136.191 24.6589 137.961 27.8832C139.731 31.0794 140.616 34.9346 140.616 39.4486C140.616 43.9907 139.717 47.8738 137.918 51.0981C136.12 54.3224 133.76 56.7897 130.838 58.5C127.944 60.2103 124.826 61.0654 121.482 61.0654ZM101 79.8224V19.0935H109.176L110.946 29.1869V79.8224H101Z" fill="#F3F4F6"/>
<path d="M151.94 11.6075C150.001 11.6075 148.484 11.1028 147.388 10.0935C146.321 9.05607 145.787 7.62617 145.787 5.80374C145.787 4.03738 146.321 2.63551 147.388 1.59813C148.484 0.53271 150.001 0 151.94 0C153.851 0 155.354 0.53271 156.45 1.59813C157.545 2.63551 158.093 4.03738 158.093 5.80374C158.093 7.62617 157.545 9.05607 156.45 10.0935C155.354 11.1028 153.851 11.6075 151.94 11.6075ZM146.967 59.8878V18.9252H156.913V59.8878H146.967Z" fill="#F3F4F6"/>
<path d="M182.547 61.0654C179.12 61.0654 175.987 60.1682 173.149 58.3738C170.34 56.5514 168.092 54.014 166.406 50.7617C164.748 47.4813 163.92 43.6542 163.92 39.2804C163.92 34.9626 164.72 31.2056 166.322 28.0093C167.951 24.785 170.115 22.3037 172.812 20.5654C175.537 18.7991 178.558 17.9159 181.873 17.9159C184.908 17.9159 187.535 18.6449 189.754 20.1028C191.974 21.5327 193.674 23.6636 194.854 26.4953C196.034 29.3271 196.624 32.8037 196.624 36.9252H193.505C193.505 34.7944 193.069 32.986 192.198 31.5C191.328 29.986 190.176 28.8364 188.743 28.0514C187.338 27.2383 185.807 26.8318 184.149 26.8318C182.154 26.8318 180.384 27.3505 178.839 28.3879C177.322 29.4252 176.127 30.8832 175.256 32.7617C174.385 34.6121 173.95 36.785 173.95 39.2804C173.95 41.8598 174.385 44.1028 175.256 46.0093C176.127 47.9159 177.322 49.4019 178.839 50.4673C180.384 51.5327 182.126 52.0654 184.065 52.0654C185.638 52.0654 187.141 51.6449 188.574 50.8037C190.035 49.9346 191.215 48.729 192.114 47.1869C193.041 45.6449 193.505 43.8505 193.505 41.8037H196.624C196.624 46.0935 195.977 49.6682 194.685 52.528C193.421 55.3598 191.721 57.4907 189.586 58.9206C187.45 60.3505 185.104 61.0654 182.547 61.0654ZM195.359 59.8878L193.505 49.7944V2.18691H203.535V59.8878H195.359Z" fill="#F3F4F6"/>
<path d="M228.675 81C223.983 81 219.965 80.3551 216.622 79.0654C213.306 77.7757 210.764 76.0794 208.994 73.9766C207.224 71.9019 206.339 69.6449 206.339 67.2056C206.339 64.3178 207.392 62.0748 209.499 60.4766C211.607 58.9065 214.262 58.1215 217.465 58.1215L224.714 60.8131C221.96 60.8131 219.839 61.3318 218.35 62.3692C216.861 63.4065 216.116 64.8505 216.116 66.7009C216.116 68.6355 217.226 70.1776 219.445 71.3271C221.693 72.5047 224.77 73.0935 228.675 73.0935C231.513 73.0935 233.971 72.6729 236.05 71.8318C238.13 70.9907 239.731 69.8972 240.855 68.5514C242.007 67.2056 242.583 65.7757 242.583 64.2617C242.583 63.2523 242.246 62.4252 241.571 61.7804C240.897 61.1355 239.857 60.8131 238.453 60.8131H224.714C221.96 60.8131 219.445 60.3785 217.17 59.5093C214.922 58.6122 213.124 57.4206 211.775 55.9346C210.455 54.4206 209.794 52.7383 209.794 50.8879C209.794 49.1776 210.272 47.7056 211.227 46.472C212.183 45.2103 213.475 44.243 215.105 43.5701C216.762 42.8972 218.617 42.5607 220.668 42.5607L223.196 45.8411C222.382 45.8411 221.595 46.0093 220.836 46.3458C220.106 46.6542 219.502 47.1168 219.024 47.7336C218.546 48.3505 218.308 49.1215 218.308 50.0467C218.308 51.1682 218.785 52.0794 219.741 52.7804C220.696 53.4813 222.353 53.8318 224.714 53.8318H238.453C242.808 53.8318 246.221 54.6308 248.694 56.229C251.194 57.8271 252.445 60.2804 252.445 63.5888C252.445 66.5327 251.475 69.3224 249.537 71.9579C247.598 74.6215 244.845 76.7944 241.276 78.4766C237.736 80.1589 233.536 81 228.675 81ZM229.181 47.271C225.95 47.271 222.986 46.6682 220.288 45.4626C217.619 44.229 215.484 42.5187 213.882 40.3318C212.281 38.1449 211.48 35.5794 211.48 32.6355C211.48 29.6355 212.281 27.028 213.882 24.8131C215.484 22.5981 217.619 20.9019 220.288 19.7243C222.986 18.5187 225.95 17.9159 229.181 17.9159C232.328 17.9159 235.236 18.5187 237.905 19.7243C240.574 20.9019 242.723 22.5981 244.353 24.8131C245.982 27.028 246.797 29.6355 246.797 32.6355C246.797 35.5794 245.982 38.1449 244.353 40.3318C242.723 42.5187 240.574 44.229 237.905 45.4626C235.236 46.6682 232.328 47.271 229.181 47.271ZM229.265 40.3738C231.85 40.3738 233.789 39.6308 235.081 38.1449C236.373 36.6589 237.02 34.8224 237.02 32.6355C237.02 30.2804 236.359 28.3878 235.039 26.9579C233.746 25.528 231.794 24.8131 229.181 24.8131C226.652 24.8131 224.714 25.528 223.365 26.9579C222.016 28.3878 221.342 30.2804 221.342 32.6355C221.342 34.8224 222.016 36.6589 223.365 38.1449C224.742 39.6308 226.708 40.3738 229.265 40.3738ZM243.679 24.4766L239.127 21.8692C239.127 19.4299 239.689 17.2991 240.813 15.4766C241.965 13.6262 243.482 12.1963 245.364 11.1869C247.275 10.1776 249.382 9.6729 251.686 9.6729L251.18 19.1776C248.736 19.1776 246.867 19.6121 245.575 20.4813C244.311 21.3224 243.679 22.6542 243.679 24.4766Z" fill="#F3F4F6"/>
<path d="M261.466 11.6075C259.527 11.6075 258.01 11.1028 256.914 10.0935C255.847 9.05607 255.313 7.62617 255.313 5.80374C255.313 4.03738 255.847 2.63551 256.914 1.59813C258.01 0.53271 259.527 0 261.466 0C263.377 0 264.88 0.53271 265.976 1.59813C267.071 2.63551 267.619 4.03738 267.619 5.80374C267.619 7.62617 267.071 9.05607 265.976 10.0935C264.88 11.1028 263.377 11.6075 261.466 11.6075ZM256.493 59.8878V18.9252H266.439V59.8878H256.493Z" fill="#F3F4F6"/>
<path d="M305.054 59.8878V36C305.054 32.972 304.323 30.6869 302.862 29.1449C301.401 27.6028 299.491 26.8318 297.131 26.8318C295.136 26.8318 293.366 27.3785 291.821 28.472C290.303 29.5654 289.109 31.2196 288.238 33.4346C287.367 35.6215 286.932 38.3551 286.932 41.6355H283.645C283.645 36.3364 284.305 31.9346 285.625 28.4299C286.946 24.8972 288.814 22.2617 291.231 20.5234C293.647 18.785 296.485 17.9159 299.744 17.9159C303.115 17.9159 305.925 18.6729 308.173 20.1869C310.448 21.6729 312.148 23.7757 313.272 26.4953C314.424 29.215 315 32.3832 315 36V59.8878H305.054ZM276.986 59.8878V19.0935H285.667L286.932 27.1682V59.8878H276.986Z" fill="#F3F4F6"/>
</svg>
