<svg width="22" height="24" viewBox="0 0 22 24" fill="none" xmlns="http://www.w3.org/2000/svg">
<path fill-rule="evenodd" clip-rule="evenodd" d="M10.9046 20.3813C11.234 20.7001 13.2853 22.5688 16.7741 23.2514C15.2881 22.148 14.8527 20.8654 15.0302 19.4315C15.8606 19.1824 17.3846 18.2954 17.3846 18.2954C20.035 16.4539 21.7359 13.5036 21.7359 10.1772C21.7359 6.69237 19.8767 3.62338 17.0286 1.80176C15.2683 0.653353 13.1519 0 10.8576 0C5.07252 0 0.349372 4.21563 0 9.54325C1.39187 7.30393 3.87431 5.81308 6.70496 5.81308C9.83148 5.81308 12.5332 7.63189 13.8098 10.2692C11.1241 10.8562 9.11345 13.2484 9.11345 16.1102C9.11345 17.7826 9.80013 19.2947 10.9069 20.3798C10.9062 20.3803 10.9054 20.3808 10.9046 20.3813Z" fill="#6366F1"/>
<circle cx="9.30013" cy="8.80233" r="0.830407" fill="#6366F1"/>
<path fill-rule="evenodd" clip-rule="evenodd" d="M0.0703125 8.83662C2.03245 5.48335 5.67204 3.23102 9.83768 3.23102C15.7635 3.23102 20.6248 7.78892 21.107 13.5902C21.513 12.5241 21.7336 11.3751 21.7336 10.1772C21.7336 6.69237 19.8744 3.62338 17.0262 1.80176C15.2659 0.653353 13.1496 0 10.8553 0C5.32845 0 0.770878 3.84762 0.0703125 8.83662Z" fill="#818CF8"/>
<path fill-rule="evenodd" clip-rule="evenodd" d="M13.8363 10.2581C11.1177 10.8201 9.07422 13.228 9.07422 16.1131C9.07422 18.2617 10.2076 20.1456 11.9091 21.1996C10.8027 19.9469 10.1313 18.3009 10.1313 16.4982C10.1313 13.8059 11.6288 11.4633 13.8363 10.2581Z" fill="#4F46E5"/>
</svg>
